{"title":"Calendar.Girls.2003.DVDRip.x264.AC3.Multi_Sub.mkv.Zen_Bud","uid":6807203,"size":2335148776,"categoryP":"video","categoryS":"movies","magnet":"?xt=urn:btih:2edf1a53cde8d88347af98a6db456a49c9595ab4&amp;dn=Calendar.Girls.2003.DVDRip.x264.AC3.Multi_Sub.mkv.Zen_Bud&amp;tr=udp%3A%2F%2Ftracker.openbittorrent.com%3A80&amp;tr=udp%3A%2F%2Fopen.demonii.com%3A1337&amp;tr=udp%3A%2F%2Ftracker.coppersurfer.tk%3A6969&amp;tr=udp%3A%2F%2Fexodus.desync.com%3A6969","seeders":2,"leechers":1,"uploader":"Zen_Bud","files":-1,"time":1320914828,"description":"\n     Calendar.Girls.2003.DVDRip.x264.AC3.Multi_Sub.mkv.Zen_Bud\n\nFormat                           : Matroska\nFormat version                   : Version 2\nFile size                        : 2.17 GiB\nDuration                         : 1h 43mn\nOverall bit rate                 : 2 999 Kbps\nWriting application              : HandBrake 0.9.5\nWriting library                  : libmkv 0.6.4.1\n\nVideo\nID                               : 1\nFormat                           : AVC\nFormat/Info                      : Advanced Video Codec\nFormat profile                   : &lt;a class=&quot;__cf_email__&quot; href=&quot;/cdn-cgi/l/email-protection&quot; data-cfemail=&quot;c189a8a6a9818df2eff1&quot;&gt;[email&amp;#160;protected]&lt;/a&gt;&lt;script cf-hash='f9e31' type=&quot;text/javascript&quot;&gt;\n/* &lt;![CDATA[ */!function(){try{var t=&quot;currentScript&quot;in document?document.currentScript:function(){for(var t=document.getElementsByTagName(&quot;script&quot;),e=t.length;e--;)if(t[e].getAttribute(&quot;cf-hash&quot;))return t[e]}();if(t&amp;&amp;t.previousSibling){var e,r,n,i,c=t.previousSibling,a=c.getAttribute(&quot;data-cfemail&quot;);if(a){for(e=&quot;&quot;,r=parseInt(a.substr(0,2),16),n=2;a.length-n;n+=2)i=parseInt(a.substr(n,2),16)^r,e+=String.fromCharCode(i);e=document.createTextNode(e),c.parentNode.replaceChild(e,c)}}}catch(u){}}();/* ]]&gt; */&lt;/script&gt;\nFormat settings, CABAC           : Yes\nFormat settings, ReFrames        : 4 frames\nCodec ID                         : V_MPEG4/ISO/AVC\nDuration                         : 1h 43mn\nBit rate                         : 2 500 Kbps\nWidth                            : 720 pixels\nHeight                           : 448 pixels\nDisplay aspect ratio             : 2.25:1\nOriginal display aspect ratio    : 2.25:1\nFrame rate mode                  : Variable\nFrame rate                       : 25.000 fps\nColor space                      : YUV\nChroma subsampling               : 4:2:0\nBit depth                        : 8 bits\nScan type                        : Progressive\nBits/(Pixel*Frame)               : 0.310\nStream size                      : 1.81 GiB (83%)\nWriting library                  : x264 core 112\nEncoding settings                : cabac=1 / ref=4 / deblock=1:0:0 / analyse=0x3:0x113 \n\nAudio\nID                               : 2\nFormat                           : AC-3\nFormat/Info                      : Audio Coding 3\nMode extension                   : CM (complete main)\nCodec ID                         : A_AC3\nDuration                         : 1h 43mn\nBit rate mode                    : Constant\nBit rate                         : 448 Kbps\nChannel(s)                       : 6 channels\nChannel positions                : Front: L C R, Side: L R, LFE\nSampling rate                    : 48.0 KHz\nBit depth                        : 16 bits\nCompression mode                 : Lossy\nStream size                      : 333 MiB (15%)\nLanguage                         : English\n\nText #1\nID                               : 3\nFormat                           : VobSub\nCodec ID                         : S_VOBSUB\nCodec ID/Info                    : The same subtitle format used on DVDs\nLanguage                         : English\n\nText #2\nID                               : 4\nFormat                           : VobSub\nCodec ID                         : S_VOBSUB\nCodec ID/Info                    : The same subtitle format used on DVDs\nLanguage                         : English\n\nText #3\nID                               : 5\nFormat                           : VobSub\nCodec ID                         : S_VOBSUB\nCodec ID/Info                    : The same subtitle format used on DVDs\nLanguage                         : Swedish\n\nText #4\nID                               : 6\nFormat                           : VobSub\nCodec ID                         : S_VOBSUB\nCodec ID/Info                    : The same subtitle format used on DVDs\nLanguage                         : Norwegian\n\nText #5\nID                               : 7\nFormat                           : VobSub\nCodec ID                         : S_VOBSUB\nCodec ID/Info                    : The same subtitle format used on DVDs\nLanguage                         : Danish\n\nText #6\nID                               : 8\nFormat                           : VobSub\nCodec ID                         : S_VOBSUB\nCodec ID/Info                    : The same subtitle format used on DVDs\nLanguage                         : Finnish\n\nText #7\nID                               : 9\nFormat                           : VobSub\nCodec ID                         : S_VOBSUB\nCodec ID/Info                    : The same subtitle format used on DVDs\nLanguage                         : French\n\nText #8\nID                               : 10\nFormat                           : VobSub\nCodec ID                         : S_VOBSUB\nCodec ID/Info                    : The same subtitle format used on DVDs\nLanguage                         : Spanish\n\nText #9\nID                               : 11\nFormat                           : VobSub\nCodec ID                         : S_VOBSUB\nCodec ID/Info                    : The same subtitle format used on DVDs\nLanguage                         : Icelandic\n\nText #10\nID                               : 12\nFormat                           : VobSub\nCodec ID                         : S_VOBSUB\nCodec ID/Info                    : The same subtitle format used on DVDs\nLanguage                         : Portuguese\n\nText #11\nID                               : 13\nFormat                           : VobSub\nCodec ID                         : S_VOBSUB\nCodec ID/Info                    : The same subtitle format used on DVDs\nLanguage                         : Dutch\n\nText #12\nID                               : 14\nFormat                           : VobSub\nCodec ID                         : S_VOBSUB\nCodec ID/Info                    : The same subtitle format used on DVDs\nLanguage                         : French\n\nMenu\n00:00:00.000                     : Chapter 1\n00:08:43.200                     : Chapter 2\n00:17:42.360                     : Chapter 3\n00:27:07.920                     : Chapter 4\n00:37:25.520                     : Chapter 5\n00:47:49.000                     : Chapter 6\n00:58:01.000                     : Chapter 7\n01:06:06.880                     : Chapter 8\n01:15:30.800                     : Chapter 9\n01:25:14.920                     : Chapter 10\n01:34:12.720                     : Chapter 11\n\n","torrent":{"xt":"urn:btih:2edf1a53cde8d88347af98a6db456a49c9595ab4","amp;dn":"Calendar.Girls.2003.DVDRip.x264.AC3.Multi_Sub.mkv.Zen_Bud","amp;tr":["udp%3A%2F%2Ftracker.openbittorrent.com%3A80","udp%3A%2F%2Fopen.demonii.com%3A1337","udp%3A%2F%2Ftracker.coppersurfer.tk%3A6969","udp%3A%2F%2Fexodus.desync.com%3A6969"],"infoHash":"2edf1a53cde8d88347af98a6db456a49c9595ab4","infoHashBuffer":{"type":"Buffer","data":[46,223,26,83,205,232,216,131,71,175,152,166,219,69,106,73,201,89,90,180]},"announce":[],"urlList":[]}}